<?xml version="1.0" encoding="UTF-8"?>
<svg id="Colorful" xmlns="http://www.w3.org/2000/svg" viewBox="0 0 512 512">
  <defs>
    <style>
      .cls-1 {
        fill: #ffddce;
      }

      .cls-1, .cls-2, .cls-3, .cls-4, .cls-5, .cls-6, .cls-7, .cls-8, .cls-9 {
        stroke-width: 0px;
      }

      .cls-2 {
        fill: #dd636e;
      }

      .cls-3 {
        fill: #365e7d;
      }

      .cls-4 {
        fill: #e28086;
      }

      .cls-5 {
        fill: #32bea6;
      }

      .cls-6 {
        fill: #4a80aa;
      }

      .cls-7 {
        fill: #fff;
      }

      .cls-8 {
        fill: #e4f6ff;
      }

      .cls-9 {
        fill: #f4fbff;
      }
    </style>
  </defs>
  <g>
    <g>
      <path class="cls-3" d="M314.01,77.58c0-11.92-9.66-21.58-21.58-21.58h-74.38c-27.44,0-49.68,22.24-49.68,49.68v55.15h175.24v-54.37c0-11.92-9.66-21.58-21.58-21.58h-.73c-4.03,0-7.29-3.26-7.29-7.29h0Z"/>
      <path class="cls-6" d="M410.13,328.68c-5.71-5.64-12.77-10-20.78-12.53l-63.72-20.17-69.61-2.45-69.64,2.45-63.72,20.17c-21.56,6.83-36.21,26.83-36.21,49.44v17.41c40.84,43.15,97.97,70.72,161.55,72.87,71.23-15.82,130.5-63.44,162.13-127.19h0Z"/>
      <path class="cls-6" d="M425.55,383v-17.41c0-15.99-7.33-30.67-19.24-40.31-33.84,68.95-100.68,118.77-179.93,128.84,9.57,1.21,19.31,1.86,29.2,1.88,9.5-.01,18.88-.57,28.1-1.62,55.64-6.58,105.29-32.73,141.87-71.38h0Z"/>
      <path class="cls-8" d="M261.28,452.51c14.12-28.04,50.9-107.65,40.41-157.37l-45.68-17.78-45.72,17.78c-10.81,51.26,28.6,134.28,41.65,159.82,3.14-.75,6.25-1.57,9.34-2.45h0Z"/>
      <path class="cls-4" d="M285.36,430.28l-18.52-72.86h-21.67l-18.48,72.66,22.85,25.43c5.8-1.33,11.52-2.87,17.15-4.61l18.67-20.63Z"/>
      <g>
        <path class="cls-1" d="M295,288.41v-41.09h-78.03v41.09c0,21.55,39.01,45.08,39.01,45.08,0,0,39.01-23.54,39.01-45.08h0Z"/>
        <path class="cls-1" d="M343.61,153.59h-14.92c-8.3,0-15.02-6.72-15.02-15.02v-8.22c0-10.81-10.57-18.44-20.83-15.05-23.93,7.91-49.76,7.91-73.69,0h-.03c-10.26-3.4-20.83,4.24-20.83,15.05v8.22c0,8.3-6.72,15.02-15.02,15.02h-14.91v24.56c0,6.28,5.09,11.36,11.36,11.36,1.98,0,3.59,1.55,3.72,3.53,2.4,37.99,33.95,68.07,72.54,68.07s70.15-30.07,72.54-68.07c.12-1.98,1.74-3.53,3.72-3.53,6.28,0,11.36-5.09,11.36-11.36v-24.56h0Z"/>
      </g>
      <g>
        <path class="cls-9" d="M216.97,277.35l-30.6,24.86,32.09,39.67c3.9,3.8,10.05,4.03,14.23.54l24.13-20.16-39.85-44.92Z"/>
        <path class="cls-9" d="M295.01,277.35l-38.19,44.92,22.68,19.39c4.15,3.55,10.33,3.37,14.27-.41l31.86-39.04-30.61-24.86Z"/>
      </g>
    </g>
    <path class="cls-3" d="M216.97,277.35l-44.91,22.06c-3.42,1.68-4.79,5.84-3.05,9.22l8.8,17.06c2.28,4.42,1.44,9.81-2.08,13.32-1.81,1.81-3.77,3.77-5.47,5.46-3.04,3.04-4.14,7.53-2.8,11.61,10.62,32.38,61.75,81.9,81.1,99.82,1.3.03,2.6.06,3.91.07-14.03-27.29-63.75-130.98-35.5-178.63h0Z"/>
    <path class="cls-3" d="M336.25,339.02c-3.52-3.51-4.36-8.9-2.08-13.32l8.8-17.06c1.75-3.39.37-7.54-3.05-9.22l-44.91-22.06c28.24,47.64-21.44,151.28-35.49,178.61,1.32-.02,2.64-.06,3.95-.1,19.39-17.96,70.43-67.41,81.04-99.77,1.34-4.09.25-8.57-2.8-11.61-1.7-1.7-3.66-3.66-5.47-5.47h0Z"/>
    <path class="cls-2" d="M256.82,322.27l-23.76,19.84,12.11,15.3h21.67l12.11-16.2-22.12-18.94Z"/>
  </g>
  <g>
    <ellipse class="cls-5" cx="360.73" cy="396.99" rx="57.18" ry="57.15"/>
    <polygon class="cls-7" points="356.15 427.39 329.11 406.32 336.8 396.46 353.4 409.39 380.8 369.85 391.08 376.97 356.15 427.39"/>
  </g>
</svg>