<?xml version="1.0" encoding="UTF-8"?>
<svg id="Black" xmlns="http://www.w3.org/2000/svg" viewBox="0 0 512 512">
  <defs>
    <style>
      .cls-1 {
        fill: #000;
        stroke-width: 0px;
      }
    </style>
  </defs>
  <path class="cls-1" d="M293.55,396.99c0-37.02,30.14-67.15,67.18-67.15,30.95,0,57.06,21.03,64.82,49.54v-13.79c0-14.2-5.8-27.37-15.44-36.89,0,0,0-.01.01-.02h0c-.38-.37-.78-.72-1.17-1.09-.21-.19-.41-.39-.62-.58-.5-.45-1.02-.88-1.54-1.32-.16-.14-.32-.28-.49-.42,0,0,0,0,0,0-4.94-4-10.65-7.14-16.96-9.14l-47.16-14.93c-.6-.73-1.36-1.36-2.26-1.8l-44.91-22.06h0s0,0,0,0v.02s-.01-27.62-.01-27.62c19.02-12.13,32.03-32.86,33.53-56.71.12-1.98,1.74-3.53,3.72-3.53,6.28,0,11.36-5.09,11.36-11.36v-24.56h0v-47.13c0-11.92-9.66-21.58-21.58-21.58h-.73c-4.03,0-7.29-3.26-7.29-7.29,0-11.92-9.66-21.58-21.58-21.58h-74.38c-27.44,0-49.68,22.24-49.68,49.68v72.48c0,6.28,5.09,11.36,11.36,11.36,1.98,0,3.59,1.55,3.72,3.53,1.5,23.85,14.51,44.58,33.53,56.71v27.6l-44.91,22.06c-.91.45-1.67,1.07-2.27,1.81l-47.14,14.93c-21.56,6.83-36.21,26.83-36.21,49.44v17.41c36.15,38.2,85.08,64.18,139.94,71.12,0,0,0,0,0,0,.05,0,.09.01.14.02,2.11.27,4.23.5,6.35.71.42.04.84.08,1.26.12,1.05.1,2.11.19,3.17.28,1.26.1,2.53.19,3.8.27.75.05,1.51.09,2.26.13,1.2.06,2.39.12,3.6.17.34.01.69.04,1.03.05,0,0,.01,0,.02,0,.17,0,.34.01.51.02.01.01.03.02.04.03,1.3.03,2.6.06,3.91.07,0,0,0-.01,0-.02,1.04.02,2.08.03,3.12.03,1.32,0,2.64-.04,3.96-.06,0,0,0,.02-.01.03.91-.02,1.83-.04,2.74-.07.21,0,.43,0,.64-.02.19,0,.38,0,.58-.01,0,0,0,0,.01-.01,6.8-.22,13.54-.71,20.2-1.48,11.39-1.35,22.52-3.52,33.34-6.45-14.36-12.32-23.48-30.58-23.48-50.94Z"/>
  <path class="cls-1" d="M360.73,339.84c-31.58,0-57.18,25.59-57.18,57.15s25.6,57.15,57.18,57.15,57.18-25.59,57.18-57.15-25.6-57.15-57.18-57.15ZM356.15,427.39l-27.04-21.06,7.69-9.87,16.6,12.93,27.4-39.54,10.28,7.12-34.94,50.41Z"/>
</svg>