<?xml version="1.0" encoding="utf-8"?>
<!-- Generator: Adobe Illustrator 25.0.0, SVG Export Plug-In . SVG Version: 6.00 Build 0)  -->
<svg version="1.1" id="Layer_1" xmlns="http://www.w3.org/2000/svg" xmlns:xlink="http://www.w3.org/1999/xlink" x="0px" y="0px"
	 viewBox="0 0 24 24" style="enable-background:new 0 0 24 24;" xml:space="preserve">
<style type="text/css">
	.st0{fill:#FF6666;}
</style>
<path class="st0" d="M22.4,0H1.5C0.7,0,0,0.7,0,1.5v21.1C0,23.3,0.7,24,1.5,24h21c0.8,0,1.5-0.7,1.5-1.5v-21C23.9,0.7,23.2,0,22.4,0
	z M10.8,5.2c0-0.7,0.6-1.2,1.2-1.2s1.2,0.6,1.2,1.2v6.2c0,0.7-0.6,1.2-1.2,1.2s-1.2-0.6-1.2-1.2V5.2z M12,19.9
	c-4.4,0-7.9-3.6-7.9-7.9c0-2.4,1.1-4.7,3-6.2c0.4-0.3,1-0.2,1.3,0.2c0.3,0.4,0.2,1-0.2,1.3C6.8,8.4,5.9,10.1,5.9,12
	c0,3.4,2.7,6.1,6.1,6.1c3.4,0,6.1-2.7,6.1-6.1c0-1.9-0.8-3.6-2.3-4.8c-0.4-0.3-0.5-0.9-0.2-1.3c0.3-0.4,0.9-0.5,1.3-0.2
	c1.9,1.5,3,3.8,3,6.2C19.9,16.4,16.4,19.9,12,19.9z"/>
</svg>
