<?xml version="1.0" encoding="UTF-8"?>
<svg id="Black-2" data-name="Black" xmlns="http://www.w3.org/2000/svg" viewBox="0 0 512 512">
  <defs>
    <style>
      .cls-1 {
        fill: #fff;
        stroke-width: 0px;
      }
    </style>
  </defs>
  <path class="cls-1" d="M256,56c-59.8.07-108.26,48.53-108.33,108.33v66.67c0,4.6,3.73,8.33,8.33,8.33h33.33c4.6,0,8.33-3.73,8.33-8.33v-66.67c0-32.22,26.12-58.33,58.33-58.33s58.33,26.12,58.33,58.33v66.67c0,4.6,3.73,8.33,8.33,8.33h33.33c4.6,0,8.33-3.73,8.33-8.33v-66.67c-.07-59.8-48.53-108.26-108.33-108.33Z"/>
  <path class="cls-1" d="M356,222.67h-200c-23.01,0-41.67,18.65-41.67,41.67v150c0,23.01,18.65,41.67,41.67,41.67h200c23.01,0,41.67-18.65,41.67-41.67v-150c0-23.01-18.65-41.67-41.67-41.67ZM274.57,351.48l6.43,45c.06.42.09.84.08,1.27-.05,4.6-3.81,8.3-8.42,8.25h-33.33c-.39,0-.78-.03-1.17-.08-4.56-.64-7.73-4.86-7.08-9.42l6.43-45c-14.26-7.06-23.25-21.61-23.18-37.52.1-23.01,18.83-41.59,41.84-41.49s41.59,18.83,41.49,41.84c-.09,15.74-9.02,30.1-23.1,37.15Z"/>
</svg>