<?xml version="1.0" encoding="UTF-8"?>
<svg id="Black" xmlns="http://www.w3.org/2000/svg" viewBox="0 0 512 512">
  <defs>
    <style>
      .cls-1 {
        fill: #455a64;
      }

      .cls-1, .cls-2 {
        stroke-width: 0px;
      }

      .cls-2 {
        fill: #ffc107;
      }
    </style>
  </defs>
  <path class="cls-1" d="M256,56c-59.8.07-108.26,48.53-108.33,108.33v66.67c0,4.6,3.73,8.33,8.33,8.33h33.33c4.6,0,8.33-3.73,8.33-8.33v-66.67c0-32.22,26.12-58.33,58.33-58.33s58.33,26.12,58.33,58.33v66.67c0,4.6,3.73,8.33,8.33,8.33h33.33c4.6,0,8.33-3.73,8.33-8.33v-66.67c-.07-59.8-48.53-108.26-108.33-108.33Z"/>
  <path class="cls-2" d="M156,222.67h200c23.01,0,41.67,18.65,41.67,41.67v150c0,23.01-18.65,41.67-41.67,41.67h-200c-23.01,0-41.67-18.65-41.67-41.67v-150c0-23.01,18.65-41.67,41.67-41.67Z"/>
  <path class="cls-1" d="M297.67,314.33c.1-23.01-18.48-41.75-41.49-41.84-23.01-.1-41.75,18.48-41.84,41.49-.07,15.91,8.93,30.46,23.18,37.52l-6.43,45c-.64,4.56,2.53,8.77,7.08,9.42.39.05.78.08,1.17.08h33.33c4.6.05,8.37-3.65,8.42-8.25,0-.42-.02-.85-.08-1.27l-6.43-45c14.08-7.05,23.01-21.41,23.1-37.15Z"/>
</svg>