<?xml version="1.0" encoding="utf-8"?>
<!-- Generator: Adobe Illustrator 23.1.0, SVG Export Plug-In . SVG Version: 6.00 Build 0)  -->
<svg version="1.1" id="Capa_1" xmlns="http://www.w3.org/2000/svg" xmlns:xlink="http://www.w3.org/1999/xlink" x="0px" y="0px"
	 viewBox="0 0 449.3 449.3" style="enable-background:new 0 0 449.3 449.3;" xml:space="preserve">
<style type="text/css">
	.st0{fill:#FFFFFF;}
</style>
<g>
	<g>
		<g>
			<path class="st0" d="M160.9,98.8L214.2,45v192.8c0,5.8,4.7,10.4,10.4,10.4s10.4-4.7,10.4-10.4V45l53.3,53.8
				c4.2,3.5,10.4,3.5,14.6,0c4-4.2,4-10.9,0-15.2L232,12.1c-4.2-3.7-10.5-3.7-14.6,0l-71.1,71.6c-4,4.2-4,10.9,0,15.2
				C150.4,102.6,156.7,102.6,160.9,98.8z"/>
			<path class="st0" d="M447.7,255.6l-58.5-127.5c-1.8-4-5.6-6.6-9.9-6.8h-50.2c-5.8,0-10.4,4.7-10.4,10.4s4.7,10.4,10.4,10.4h43.4
				l48.6,109.7h-59.6c-27-0.1-51.6,15.6-62.7,40.2c-8.1,16.9-25.1,27.7-43.9,27.7h-60.6c-18.7,0-35.8-10.8-43.9-27.7
				c-11.1-24.6-35.7-40.4-62.7-40.2H29.3l57.5-109.7h33.4c5.8,0,10.4-4.7,10.4-10.4s-4.7-10.4-10.4-10.4H80.5
				c-4,0.3-7.6,2.7-9.4,6.3l-69,127c-1.1,1.5-1.9,3.3-2.1,5.2v130.6C0,419.1,25.1,440,53.8,440h341.7c28.7,0,53.8-20.9,53.8-49.6
				V259.7C448.9,258.3,448.4,256.9,447.7,255.6z"/>
		</g>
	</g>
</g>
</svg>
