<?xml version="1.0" encoding="utf-8"?>
<!-- Generator: Adobe Illustrator 25.0.0, SVG Export Plug-In . SVG Version: 6.00 Build 0)  -->
<svg version="1.1" id="Capa_1" xmlns="http://www.w3.org/2000/svg" xmlns:xlink="http://www.w3.org/1999/xlink" x="0px" y="0px"
	 viewBox="0 0 500 500" style="enable-background:new 0 0 500 500;" xml:space="preserve">
<style type="text/css">
	.st0{fill:#FFFFFF;}
</style>
<g>
	<g>
		<g>
			<path class="st0" d="M335.2,132.7h-6.9V83.2C328.2,40.1,293.1,5,250,5s-78.2,35.1-78.2,78.2v49.5h-6.9c-7.9,0-14.4,6.4-14.4,14.4
				v149c0,7.9,6.4,14.4,14.4,14.4h170.3c7.9,0,14.4-6.4,14.4-14.4v-149C349.5,139.2,343.1,132.7,335.2,132.7z M299.5,132.7h-99V83.2
				c0-27.3,22.2-49.5,49.5-49.5s49.5,22.2,49.5,49.5V132.7z"/>
		</g>
	</g>
	<g>
		<g>
			<path class="st0" d="M29.5,424.4c-2.7-2.7-6.4-4.2-10.1-4.2c-3.8,0-7.5,1.5-10.2,4.2C6.5,427,5,430.7,5,434.5s1.5,7.5,4.2,10.2
				c2.7,2.7,6.4,4.2,10.2,4.2c3.8,0,7.5-1.5,10.1-4.2c2.7-2.7,4.2-6.4,4.2-10.2C33.7,430.7,32.2,427,29.5,424.4z"/>
		</g>
	</g>
	<g>
		<g>
			<path class="st0" d="M121.8,424.4c-2.7-2.7-6.4-4.2-10.2-4.2c-3.8,0-7.5,1.5-10.1,4.2c-2.7,2.7-4.2,6.4-4.2,10.2
				s1.5,7.5,4.2,10.2c2.7,2.7,6.4,4.2,10.1,4.2c3.8,0,7.5-1.5,10.2-4.2c2.7-2.7,4.2-6.4,4.2-10.2C126,430.7,124.4,427,121.8,424.4z"
				/>
		</g>
	</g>
	<g>
		<g>
			<path class="st0" d="M214,424.4c-2.7-2.7-6.4-4.2-10.1-4.2c-3.8,0-7.5,1.5-10.2,4.2c-2.7,2.7-4.2,6.4-4.2,10.2s1.5,7.5,4.2,10.2
				c2.7,2.7,6.4,4.2,10.2,4.2c3.8,0,7.5-1.5,10.1-4.2c2.7-2.7,4.2-6.4,4.2-10.2C218.2,430.7,216.7,427,214,424.4z"/>
		</g>
	</g>
	<g>
		<g>
			<path class="st0" d="M306.3,424.4c-2.7-2.7-6.4-4.2-10.1-4.2c-3.8,0-7.5,1.5-10.2,4.2c-2.7,2.7-4.2,6.4-4.2,10.2
				s1.5,7.5,4.2,10.2c2.7,2.7,6.4,4.2,10.2,4.2c3.8,0,7.5-1.5,10.1-4.2c2.7-2.7,4.2-6.4,4.2-10.2C310.5,430.7,308.9,427,306.3,424.4
				z"/>
		</g>
	</g>
	<g>
		<g>
			<path class="st0" d="M480.6,466.3h-92.3c-7.9,0-14.4,6.4-14.4,14.4s6.4,14.4,14.4,14.4h92.3c7.9,0,14.4-6.4,14.4-14.4
				S488.6,466.3,480.6,466.3z"/>
		</g>
	</g>
</g>
</svg>
