<?xml version="1.0" encoding="utf-8"?>
<!-- Generator: Adobe Illustrator 25.0.0, SVG Export Plug-In . SVG Version: 6.00 Build 0)  -->
<svg version="1.1" id="Layer_1" xmlns="http://www.w3.org/2000/svg" xmlns:xlink="http://www.w3.org/1999/xlink" x="0px" y="0px"
	 viewBox="0 0 500 500" style="enable-background:new 0 0 500 500;" xml:space="preserve">
<style type="text/css">
	.st0{fill:#FFFFFF;}
</style>
<g>
	<path class="st0" d="M246.9,241c32.4,0,60.5-11.6,83.4-34.6c22.9-22.9,34.6-51,34.6-83.4c0-32.4-11.6-60.5-34.6-83.4
		C307.4,16.6,279.3,5,246.9,5c-32.4,0-60.5,11.6-83.4,34.6s-34.6,51-34.6,83.4c0,32.4,11.6,60.5,34.6,83.4
		C186.4,229.4,214.5,241,246.9,241z"/>
	<path class="st0" d="M453.4,381.8c-0.7-9.5-2-20-4-31c-2-11.1-4.5-21.6-7.6-31.1c-3.2-9.9-7.5-19.7-12.8-29
		c-5.5-9.7-12-18.2-19.3-25.1c-7.6-7.3-16.9-13.1-27.7-17.4c-10.7-4.3-22.7-6.4-35.4-6.4c-5,0-9.8,2.1-19.2,8.1
		c-5.7,3.7-12.5,8.1-20,12.9c-6.4,4.1-15.1,7.9-25.9,11.4c-10.5,3.4-21.1,5.1-31.6,5.1c-10.5,0-21.1-1.7-31.6-5.1
		c-10.7-3.5-19.4-7.3-25.8-11.4c-7.4-4.8-14.2-9.1-20-12.9c-9.3-6.1-14.2-8.1-19.2-8.1c-12.7,0-24.6,2.2-35.4,6.4
		c-10.8,4.3-20.1,10.1-27.7,17.4c-7.3,7-13.8,15.4-19.3,25.1c-5.3,9.4-9.6,19.1-12.8,29c-3.1,9.6-5.6,20-7.6,31.1
		c-2,11-3.3,21.4-4,31c-0.7,9.4-1,19.1-1,28.9c0,25.6,8.1,46.3,24.2,61.6C85.6,487.4,106.6,495,132,495H368
		c25.5,0,46.4-7.6,62.3-22.7c16-15.3,24.2-36,24.2-61.6C454.4,400.9,454.1,391.1,453.4,381.8z"/>
</g>
</svg>
