<?xml version="1.0" encoding="utf-8"?>
<!-- Generator: Adobe Illustrator 25.0.0, SVG Export Plug-In . SVG Version: 6.00 Build 0)  -->
<svg version="1.1" id="Layer_1" xmlns="http://www.w3.org/2000/svg" xmlns:xlink="http://www.w3.org/1999/xlink" x="0px" y="0px"
	 viewBox="0 0 512 512" style="enable-background:new 0 0 512 512;" xml:space="preserve">
<style type="text/css">
	.st0{fill:#B01E45;}
</style>
<path class="st0" d="M440,0H72C32.2,0,0,32.2,0,72v368c0,39.8,32.2,72,72,72h368c39.8,0,72-32.2,72-72V72C512,32.2,479.8,0,440,0z
	 M377.6,347.5c10.7,10.7,8.5,25.6,0,36.3c-4.3,4.3-10.7,6.4-17.1,6.4c-6.4,0-12.8-2.1-19.2-8.5L256,292l-85.3,91.7
	c-4.3,4.3-12.8,8.5-19.2,8.5s-12.8-2.1-17.1-6.4c-10.7-10.7-10.7-25.6,0-36.3l87.5-91.7L134.4,164c-10.7-10.7-8.5-27.7,0-36.3
	c10.7-10.7,27.7-8.5,36.3,0l85.3,89.6l85.3-89.6c10.7-10.7,25.6-10.7,36.3,0c10.7,10.7,10.7,25.6,0,36.3l-87.5,91.7L377.6,347.5z"/>
</svg>
