<?xml version="1.0" encoding="utf-8"?>
<!-- Generator: Adobe Illustrator 25.0.0, SVG Export Plug-In . SVG Version: 6.00 Build 0)  -->
<svg version="1.1" id="Layer_1" xmlns="http://www.w3.org/2000/svg" xmlns:xlink="http://www.w3.org/1999/xlink" x="0px" y="0px"
	 viewBox="0 0 512 512" style="enable-background:new 0 0 512 512;" xml:space="preserve">
<style type="text/css">
	.st0{fill:#B01E45;}
</style>
<g>
	<path class="st0" d="M440,48c13.2,0,24,10.8,24,24v368c0,13.2-10.8,24-24,24H72c-13.2,0-24-10.8-24-24V72c0-13.2,10.8-24,24-24H440
		 M440,0H72C32.2,0,0,32.2,0,72v368c0,39.8,32.2,72,72,72h368c39.8,0,72-32.2,72-72V72C512,32.2,479.8,0,440,0L440,0z"/>
</g>
</svg>
