<?xml version="1.0" encoding="utf-8"?>
<!-- Generator: Adobe Illustrator 25.0.0, SVG Export Plug-In . SVG Version: 6.00 Build 0)  -->
<svg version="1.1" id="Layer_1" xmlns="http://www.w3.org/2000/svg" xmlns:xlink="http://www.w3.org/1999/xlink" x="0px" y="0px"
	 viewBox="0 0 24 24" style="enable-background:new 0 0 24 24;" xml:space="preserve">
<style type="text/css">
	.st0{fill:#FFFF66;}
	.st1{fill:#3F4448;}
</style>
<path class="st0" d="M22.4,0H1.5C0.7,0,0,0.7,0,1.5v21.1C0,23.3,0.7,24,1.5,24h21c0.8,0,1.5-0.7,1.5-1.5v-21C23.9,0.7,23.2,0,22.4,0
	z"/>
<g>
	<path class="st1" d="M9.3,7.1l1,6.9c0.1,0.8,0.8,1.4,1.7,1.4l0,0c0.8,0,1.6-0.7,1.7-1.4l1-6.9C15,5.4,13.7,4,12,4l0,0
		C10.3,4,9.1,5.4,9.3,7.1z"/>
	<circle class="st1" cx="12" cy="18.4" r="1.6"/>
</g>
</svg>
